<?xml version="1.0" standalone="no"?><!DOCTYPE svg PUBLIC "-//W3C//DTD SVG 1.1//EN" "http://www.w3.org/Graphics/SVG/1.1/DTD/svg11.dtd"><svg t="1688480640180" class="icon" viewBox="0 0 1024 1024" version="1.1" xmlns="http://www.w3.org/2000/svg" p-id="3024" xmlns:xlink="http://www.w3.org/1999/xlink" width="200" height="200"><path d="M140.710363 320.000687a319.999688 319.999688 0 1 0 640.001375 0 319.999688 319.999688 0 1 0-640.001375 0z" fill="#F16051" p-id="3025"></path><path d="M100.710402 340.800667h823.999195v577.597436h-823.999195z" fill="#2EA2DB" p-id="3026"></path><path d="M926.309595 932.800089h-825.599193a14.339986 14.339986 0 0 1-14.399986-14.399986V340.800667a14.339986 14.339986 0 0 1 14.399986-14.400986h823.999195a14.339986 14.339986 0 0 1 14.399986 14.399986v577.598436c1.599998 8.001992-4.799995 14.401986-12.799988 14.401986z m-809.599209-30.39997h793.599225V355.200653h-793.599225v547.199466z" fill="#193651" p-id="3027"></path><path d="M161.350342 399.87161h703.997313v516.799495H161.350342z" fill="#FFFFFF" p-id="3028"></path><path d="M631.909883 872.000148v46.399955h-236.799769V872.000148H46.310455v62.399939c0 41.601959 33.599967 75.201927 75.199926 75.201927h782.400236c41.599959 0 75.199927-33.599967 75.199927-75.200927V872.000148h-347.199661z" fill="#FFFFFF" p-id="3029"></path><path d="M905.509616 1024h-783.999235c-49.598952 0-89.598913-39.999961-89.598912-89.599913V872.000148a14.339986 14.339986 0 0 1 14.399986-14.399986h347.199661a14.339986 14.339986 0 0 1 14.399986 14.399986v30.399971H615.909899V872.000148a14.339986 14.339986 0 0 1 14.399985-14.399986h347.199661a14.339986 14.339986 0 0 1 14.399986 14.399986v62.399939c3.199997 49.599952-36.799964 89.599913-86.399915 89.599913zM62.310439 886.400134v47.999953c0 33.600967 27.199973 60.800941 60.799941 60.800941h782.399236c33.599967 0 60.799941-27.199973 60.79994-60.799941v-47.999953h-318.399689V916.800105a14.339986 14.339986 0 0 1-14.399986 14.399986h-238.399767a14.339986 14.339986 0 0 1-14.399986-14.399986v-30.399971H62.310439z" fill="#193651" p-id="3030"></path><path d="M132.71037 924.800097h30.398971v30.39997h-30.399971zM211.110294 924.800097h30.39797v30.39997H211.110294zM289.511217 924.800097h30.399971v30.39997h-30.399971z m417.597592 0h30.399971v30.39997h-30.399971z m78.399924 0h30.39997v30.39997h-30.39997z m78.401923 0h30.398971v30.39997h-30.399971zM847.909672 355.200653h-425.599584c-8.000992 0-14.400986-6.399994-14.400986-14.399986s6.399994-14.400986 14.399986-14.400986H847.909672a14.339986 14.339986 0 0 1 14.399986 14.399986 14.339986 14.339986 0 0 1-14.399986 14.399986z m-622.399392 435.199575h233.599772v22.399978h-233.599772z m0-65.599936h233.599772v22.399978h-233.599772z m0-65.599936h233.599772v22.399978h-233.599772z m0-65.599936h233.599772V616.000398h-233.599772z m0-65.599936h233.599772v22.399978h-233.599772z m0-65.599936h233.599772v22.399979h-233.599772z m342.399665 327.99968h233.599772v22.399978h-233.599772z m0-65.599936h233.599772v22.399978h-233.599772z m0-65.599936h233.599772v22.399978h-233.599772z m0-65.599936h233.599772V616.000398h-233.599772z m0-65.599936h233.599772v22.399978h-233.599772z m0-65.599936h233.599772v22.399979h-233.599772z" fill="#193651" p-id="3031"></path><path d="M582.309931 398.400611c-12.799988-11.198989-30.39997-9.599991-41.600959 1.600998-11.199989 11.199989-11.199989 28.799972-1.599998 41.59996l204.7998 236.799768c19.199981 22.400978 54.399947 23.999977 76.798925 3.200997 20.79998-20.79998 20.79998-55.999945-3.200997-76.798925L582.309931 398.401611z" fill="#E1E6E9" p-id="3032"></path><path d="M783.909734 712.000305c-19.199981 0-38.398963-7.999992-51.19895-22.400978l-204.7998-238.399768c-15.999984-17.599983-14.399986-44.799956 1.599999-62.400939 16.001984-16.000984 44.799956-17.599983 62.401939-1.599998l236.799769 204.7998c14.399986 12.798988 22.399978 30.39797 22.399978 47.999953 0 19.199981-6.399994 36.798964-19.199981 49.598952C819.1097 703.999313 801.509717 712.000305 783.910734 712.000305z m-222.399782-305.600702c-4.799995 0-8.000992 1.599998-11.199989 4.799995-6.399994 6.399994-6.399994 14.399986 0 20.79998l204.7998 236.799769c12.799988 15.999984 39.999961 15.999984 54.399946 1.599998 7.999992-7.999992 11.199989-17.599983 11.19999-27.199973 0-9.600991-4.799995-19.199981-12.799988-27.199974L571.109942 411.200598c-1.599998-3.199997-6.399994-4.800995-9.59999-4.800995z" fill="#193651" p-id="3033"></path><path d="M905.509616 681.600334l-270.399736-235.19977c-14.399986-11.199989-35.200966-11.199989-48.000953 1.599998-12.799988 12.799988-12.799988 33.599967-1.599999 47.999954l235.199771 270.399736c22.401978 25.599975 62.401939 27.199973 88.000914 3.200996 23.999977-25.601975 22.399978-65.601936-3.199997-87.999914z" fill="#FDBF5E" p-id="3034"></path><path d="M865.509655 801.600217c-22.401978 0-41.600959-9.599991-56.001946-25.598975L574.309939 505.599506c-17.599983-19.199981-15.999984-49.598952 1.599999-67.199934 17.599983-17.599983 48.000953-19.199981 67.200934-1.599999l270.399736 235.197771c31.999969 28.800972 35.199966 78.399923 3.199997 108.799894-11.199989 12.802987-30.39997 20.80398-51.19995 20.803979zM612.709902 452.800558c-4.798995 0-9.599991 1.599998-14.399986 6.399994-7.999992 7.999992-7.999992 19.199981-1.599999 27.199973l235.199771 270.399736c17.597983 19.199981 46.399955 20.79998 65.598936 1.599998 17.599983-17.598983 17.599983-47.999953-1.599999-65.599936L625.509889 457.602553c-4.801995-3.200997-9.600991-4.801995-12.799987-4.801995z" fill="#193651" p-id="3035"></path><path d="M708.709808 320.000687c0 135.999867-110.399892 246.401759-246.399759 246.40176S215.908289 456.002555 215.908289 320.000687 324.709183 73.600928 460.71005 73.600928C598.309916 73.600928 708.709808 184.00082 708.709808 320.000687z" fill="#FFFFFF" p-id="3036"></path><path d="M460.71005 582.400431c-143.998859 0-262.398744-116.798886-262.398744-260.798745S316.710191 59.200942 460.71105 59.200942s262.399744 116.799886 262.399744 260.798746S606.309908 582.400431 460.71005 582.400431z m0-492.799519c-127.999875 0-231.999773 103.998898-231.999773 231.999774s103.999898 231.999773 231.999773 231.999773V568.000445v-14.399986c128.001875 0 232.000773-103.999898 232.000774-231.999773-0.002-129.599873-104.000898-231.999773-231.999774-231.999774z" fill="#193651" p-id="3037"></path><path d="M460.71005 518.399494c-108.799894 0-196.798808-87.999914-196.798808-196.799808s89.599913-198.399806 198.399807-198.399806 198.399806 87.999914 198.399806 196.799808c-1.599998 108.799894-91.200911 198.399806-199.999805 198.399806z" fill="#E1E6E9" p-id="3038"></path><path d="M587.108927 320.000687a14.339986 14.339986 0 0 1-14.399986-14.399985c0-54.399947-44.799956-97.598905-99.199903-97.598905a14.339986 14.339986 0 0 1-14.399986-14.399986 14.339986 14.339986 0 0 1 14.399986-14.399986c70.398931 0 127.999875 57.598944 127.999875 126.399877a14.339986 14.339986 0 0 1-14.399986 14.399985z" fill="#FFFFFF" p-id="3039"></path><path d="M459.110052 462.400548H323.111184c7.999992 7.999992 17.599983 15.999984 27.199974 22.399979h108.800894l-0.002-22.399979z m0-73.599928h-183.999821c3.201997 7.999992 6.399994 14.399986 9.601991 22.399978h174.39983v-22.399978z m0-71.999929H263.911242v4.799995c0 6.399994 0 11.198989 1.599999 17.598983h195.199809v-22.399978h-1.599998z m0-73.599929h-179.199825c-3.200997 6.399994-6.399994 14.399986-7.999993 22.399979h188.798816v-22.399979h-1.598998z" fill="#193651" p-id="3040"></path></svg>