<?xml version="1.0" standalone="no"?><!DOCTYPE svg PUBLIC "-//W3C//DTD SVG 1.1//EN" "http://www.w3.org/Graphics/SVG/1.1/DTD/svg11.dtd"><svg t="1688480513817" class="icon" viewBox="0 0 1024 1024" version="1.1" xmlns="http://www.w3.org/2000/svg" p-id="2691" xmlns:xlink="http://www.w3.org/1999/xlink" width="200" height="200"><path d="M944 16H80c-35.2 0-64 28.802-64 64v686.4h992.001V80C1008 44.8 979.201 16 944 16z" fill="#FFFFFF" p-id="2692"></path><path d="M1008 782.399H16c-9.6 0-16-6.4-16-16.001v-686.4C0 35.201 35.2 0 80 0h864c44.8 0 80 35.2 80 80v686.4c0 9.599-6.4 15.999-16 15.999z m-976-32h960V80c0-27.2-20.8-48-48-48H80c-27.2 0-48 20.8-48 48v670.4z" fill="#193651" p-id="2693"></path><path d="M80 212.8h864v489.6H80z" fill="#E1E6E9" p-id="2694"></path><path d="M80 80h864v132.8H80z" fill="#F16051" p-id="2695"></path><path d="M16 766.4v76.8c0 35.2 28.802 63.999 64 63.999h864c35.2 0 64-28.801 64-64V766.4H16z" fill="#E1E6E9" p-id="2696"></path><path d="M944 923.2H80c-44.8 0-80-35.201-80-80v-76.8c0-9.6 6.4-16 16-16h992.001c9.601 0 16.001 6.4 16.001 16v76.8c-0.002 44.799-35.203 80-80.002 80zM32 782.398v60.8c0 27.2 20.8 48 48 48h864c27.2 0 48-20.8 48-48v-60.8H32z" fill="#193651" p-id="2697"></path><path d="M384 907.2h256v100.801H384z" fill="#FFFFFF" p-id="2698"></path><path d="M640 1024H384c-9.6 0-16-6.4-16-16V907.198c0-9.601 6.4-16.001 16-16.001h256c9.6 0 16 6.4 16 16V1008c0 9.601-6.4 16.001-16 16.001z m-240-32h223.999v-68.8h-224V992z" fill="#193651" p-id="2699"></path><path d="M716.799 1024h-409.6c-9.601 0-16-6.4-16-16s6.399-16.002 16-16.002h409.6c9.6 0 16 6.4 16 16.001s-6.4 16.001-16 16.001zM409.6 820.8h32v32h-32z m86.4 0h32v32h-32z m86.4 0h32v32h-32zM163.2 131.2h32v32h-32z m86.4 0h32v32h-32zM336 131.2h32v32h-32z" fill="#193651" p-id="2700"></path><path d="M142.4 275.2h327.998v225.6H142.4z" fill="#FFFFFF" p-id="2701"></path><path d="M257.6 334.4v107.2l95.999-54.4z" fill="#2EA2DB" p-id="2702"></path><path d="M536 275.2h52.8V328H536z m0 86.4h52.8v52.8H536z m0 86.4h52.8v52.8H536z" fill="#FFFFFF" p-id="2703"></path><path d="M652.8 291.2h230.4V312H652.8z m0 86.4h230.4v20.8H652.8z m0 86.4h230.4v20.8H652.8z m-224 94.399h452.799v20.8h-452.8z m-286.4 0h206.4v20.8H142.4z m286.4 62.4h452.799V641.6h-452.8z m-286.4 0h206.4V641.6H142.4z" fill="#193651" p-id="2704"></path></svg>