<?xml version="1.0" standalone="no"?><!DOCTYPE svg PUBLIC "-//W3C//DTD SVG 1.1//EN" "http://www.w3.org/Graphics/SVG/1.1/DTD/svg11.dtd"><svg t="1688480517187" class="icon" viewBox="0 0 1024 1024" version="1.1" xmlns="http://www.w3.org/2000/svg" p-id="2857" xmlns:xlink="http://www.w3.org/1999/xlink" width="200" height="200"><path d="M137.179048 375.999952a375.999952 375.999952 0 1 0 751.999904 0 375.999952 375.999952 0 1 0-751.999904 0z" fill="#FDBF5E" p-id="2858"></path><path d="M969.178942 1009.599872V867.19989c0-87.999989-63.999992-172.799978-171.199978-225.599971l-116.799985-63.999992-167.999979 131.199983-166.399979-131.199983-116.799985 63.999992c-108.799986 52.799993-172.799978 137.599983-172.799978 225.599971v142.399982h911.999884z" fill="#2EA2DB" p-id="2859"></path><path d="M969.178942 1023.99987h-911.999884a14.339998 14.339998 0 0 1-14.399998-14.399998V867.19989c0-94.399988 67.199991-183.999977 179.199977-238.39997l116.798985-63.999992c4.799999-3.2 11.199999-1.6 15.999998 1.601l156.79998 123.199984 156.79998-123.199984c4.799999-3.2 11.198999-4.798999 15.999998-1.6l116.799985 63.999992c111.999986 55.999993 179.199977 143.998982 179.199978 238.39997V1009.599872c3.201 7.999999-3.199 14.399998-11.199999 14.399998z m-895.999886-30.400996h879.999888v-126.399984c0-83.199989-60.799992-161.601979-163.197979-212.800973l-108.799986-59.199993-158.39998 124.799985c-4.798999 4.799999-12.799998 4.799999-19.199998 0l-158.39898-124.799985-108.800986 59.199993c-102.398987 51.199994-163.199979 131.199983-163.199979 212.799973v126.399984z" fill="#193651" p-id="2860"></path><path d="M700.379976 313.59896c0 102.398987-84.799989 263.999966-190.399976 263.999967s-190.399976-161.600979-190.399976-263.999967 84.799989-193.599975 190.399976-193.599975 190.399976 89.599989 190.399976 193.599975z" fill="#FFFFFF" p-id="2861"></path><path d="M509.98 591.999925c-116.799985 0-204.799974-169.599978-204.799974-278.400965 0-113.599986 94.399988-207.998974 204.799974-207.998973 111.999986 0 204.799974 95.998988 204.799974 207.998973 0 108.799986-87.999989 278.399965-204.799974 278.399965z m0-457.599942c-94.399988 0-175.999978 81.60099-175.999977 177.599977s79.99999 249.599968 175.999977 249.599969S685.978978 407.999948 685.978978 311.99996s-81.59999-177.599977-175.999978-177.599977z" fill="#193651" p-id="2862"></path><path d="M548.379995 102.398987c-81.60099-17.599998-119.999985 25.599997-124.799984 38.399995-1.6 1.6-4.799999 3.2-6.399999 3.2-119.999985-27.199997-97.599988 168.000979-97.599988 168.000978 0 31.999996 7.999999 68.800991 22.400998 105.599987 0-28.799996 3.201-155.19898 68.799991-135.998983 0 0 80.00099 62.400992 188.799976 1.6 0 0 68.799991-27.199997 79.99999 131.199983C692.379977 379.200952 786.779965 156.79998 548.379995 102.399987z" fill="#F16051" p-id="2863"></path><path d="M341.979022 433.599945c-6.399999 0-11.199999-3.202-14.399999-9.601999-14.399998-38.399995-23.999997-76.79899-23.999997-110.399986-1.6-12.798998-12.799998-121.599985 36.799996-166.399979 19.199998-15.999998 41.599995-22.399997 70.398991-17.598997 14.399998-23.998997 60.799992-59.199992 139.199982-41.599995 73.599991 15.999998 124.799984 51.199994 151.999981 100.799987 30.398996 57.599993 28.799996 134.399983-7.999999 227.199971l-1.601 3.202c-3.201 7.999999-11.199999 11.199999-19.199997 7.999999-7.999999-3.2-11.199999-11.199999-7.999999-19.199998l1.599999-3.199999c31.999996-84.799989 35.199996-153.60098 9.600999-203.199975-22.399997-41.599995-67.199991-70.399991-131.199983-84.799989-71.999991-15.999998-103.999987 22.400997-107.199987 28.800997-1.6 3.201-3.201 6.399999-6.399999 7.999998-1.6 1.601-4.799999 1.601-6.399999 3.202-4.799999 3.2-7.999999 4.798999-12.799998 3.2-22.399997-4.798999-38.399995-1.6-51.199994 9.600998-33.599996 30.399996-31.998996 111.999986-27.199996 140.800983v1.599999c0 28.800996 7.999999 65.599992 20.799997 99.199988 3.202 8.000999 0 16.001998-7.999999 19.199997-1.598 3.193-3.199 3.193-4.799999 3.193z" fill="#193651" p-id="2864"></path><path d="M325.980024 772.799902h374.399952v235.19897h-374.399952z" fill="#E1E6E9" p-id="2865"></path><path d="M700.379976 1023.99987h-374.399952a14.339998 14.339998 0 0 1-14.399999-14.399998V772.799902a14.339998 14.339998 0 0 1 14.399999-14.399998h374.399952a14.339998 14.339998 0 0 1 14.399998 14.399998v235.19897c1.598 9.599999-4.801999 15.999998-14.399998 15.999998z m-358.400954-30.400996h343.999956v-204.799974h-343.999956v204.799974z" fill="#193651" p-id="2866"></path><path d="M384.219016 831.359894h257.599968v118.399985h-257.599968z" fill="#FFFFFF" p-id="2867"></path><path d="M700.379976 935.999881h76.79899v73.599991h-76.79999z" fill="#E1E6E9" p-id="2868"></path><path d="M777.178966 1023.99987h-76.79999a14.339998 14.339998 0 0 1-14.399998-14.399998V935.999881a14.339998 14.339998 0 0 1 14.399998-14.400998h76.79999a14.339998 14.339998 0 0 1 14.399999 14.399998v73.599991a14.339998 14.339998 0 0 1-14.399999 14.399998z m-62.399992-30.400996h46.399994v-43.199995h-46.399994v43.199995z" fill="#193651" p-id="2869"></path><path d="M249.179033 935.999881h76.798991v73.599991h-76.799991z" fill="#E1E6E9" p-id="2870"></path><path d="M325.980024 1023.99987h-76.799991a14.339998 14.339998 0 0 1-14.399998-14.399998V935.999881a14.339998 14.339998 0 0 1 14.399998-14.400998h76.799991a14.339998 14.339998 0 0 1 14.399998 14.399998v73.599991c1.599 7.999999-4.800999 14.399998-14.399998 14.399998z m-60.799993-30.400996h46.399994v-43.199995h-46.399994v43.199995z m153.597981-116.799985h30.399996V905.599885h-30.399996z m79.99999 0h30.399996V905.599885h-30.399996z m78.39999 0h30.399996V905.599885h-30.399996z" fill="#193651" p-id="2871"></path></svg>