<?xml version="1.0" standalone="no"?><!DOCTYPE svg PUBLIC "-//W3C//DTD SVG 1.1//EN" "http://www.w3.org/Graphics/SVG/1.1/DTD/svg11.dtd"><svg t="1688479282702" class="icon" viewBox="0 0 1024 1024" version="1.1" xmlns="http://www.w3.org/2000/svg" p-id="2531" xmlns:xlink="http://www.w3.org/1999/xlink" width="200" height="200"><path d="M390.4 1007.997l-185.6-331.2-187.2 331.2z" fill="#FFFFFF" p-id="2532"></path><path d="M390.4 1023.998H17.6c-6.4 0-11.2-3.199-14.401-8s-3.201-11.2 0-16.001l185.6-331.2c6.4-9.6 22.4-9.6 27.2 0l185.6 331.2a14.53 14.53 0 0 1 0 16c0 4.8-4.8 8-11.2 8z m-345.6-32h318.4L204.8 710.4l-160 281.598z" fill="#193651" p-id="2533"></path><path d="M172.8 828.797L95.999 966.4h217.6l-78.4-137.602z" fill="#CFD0D1" p-id="2534"></path><path d="M1007.997 1007.997l-185.6-331.2-187.198 331.2z" fill="#FFFFFF" p-id="2535"></path><path d="M1007.997 1023.998H635.2c-6.4 0-11.2-3.199-14.4-8a14.53 14.53 0 0 1 0-16.001l185.6-331.2c6.4-9.6 22.4-9.6 27.2 0l185.6 331.2a14.54 14.54 0 0 1 0 16c0 4.8-4.802 8-11.202 8z m-345.598-32h318.4L822.399 710.4l-160 281.598z" fill="#193651" p-id="2536"></path><path d="M790.398 828.797l-76.8 137.602h217.6l-78.4-137.602z" fill="#CFD0D1" p-id="2537"></path><path d="M899.198 1007.997L551.998 451.2 204.8 1007.997z" fill="#FFFFFF" p-id="2538"></path><path d="M899.198 1023.998H204.8c-6.4 0-11.2-3.199-14.4-8s-3.202-11.2 0-16.001l347.198-556.8c6.4-9.6 20.8-9.6 27.2 0l347.198 556.8a14.53 14.53 0 0 1 0 16c-1.598 4.8-7.998 8-12.798 8z m-665.598-32h636.8l-318.402-510.4-318.398 510.4z" fill="#193651" p-id="2539"></path><path d="M444.8 740.799L312 951.999h478.398l-131.2-211.2-57.6 27.2-49.6-27.2-51.2 27.2z" fill="#E1E6E9" p-id="2540"></path><path d="M551.998 467.198c-9.6 0-16-6.4-16-16V230.399c0-9.6 6.4-16 16-16s16 6.4 16 16v220.8c0 9.6-8 16-16 16z" fill="#193651" p-id="2541"></path><path d="M711.998 345.6h-160V230.4h160l-40 57.599z" fill="#FFFFFF" p-id="2542"></path><path d="M713.599 361.599c-1.6 0-1.6 0 0 0H551.998c-9.6 0-16-6.4-16-16.001v-115.2c0-9.602 6.4-16.002 16-16.002h161.6c6.4 0 11.2 3.201 14.4 8 3.202 4.8 1.601 11.2-1.6 16.002l-33.6 48 32 46.4c3.2 3.201 4.8 6.4 4.8 11.2 0 11.2-7.999 17.6-16 17.6z m-145.6-32h115.2l-22.4-32c-3.201-4.799-3.201-12.8 0-17.599l22.4-32H568v81.6z" fill="#193651" p-id="2543"></path><path d="M81.6 217.6a135.999 135.999 0 1 0 271.998 0 135.999 135.999 0 1 0-271.997 0z" fill="#FDBF5E" p-id="2544"></path><path d="M217.6 371.2c-84.8 0-152-68.801-152-152 0-84.8 68.8-152 152-152 84.799 0 152 68.8 152 152 1.6 83.199-67.201 152-152 152z m0-273.6c-67.2 0-120 54.4-120 120 0 67.2 54.4 120 120 120 67.2 0 120-54.4 120-120 1.6-65.6-52.8-120-120-120z" fill="#193651" p-id="2545"></path><path d="M137.6 217.6a80 80 0 1 0 160 0 80 80 0 1 0-160 0z" fill="#FFFFFF" p-id="2546"></path><path d="M0 201.599h32v32H0z m404.8 0h32v32h-32zM65.27 325.75l-27.716 15.997-15.997-27.716 27.716-15.996z m349.993-203.007l-27.714 15.997-15.997-27.716 27.714-15.997zM138.83 388.038l-15.997 27.716-27.716-15.995 15.997-27.716zM341.698 36.94l-16.005 27.714-27.714-16.005 16.005-27.714zM201.598 404.8h32v32h-32z m0-404.8h32v32h-32z m140.178 399.252l-27.714 15.996-15.996-27.715 27.715-15.997z m-203.022-350l-27.713 16.005-16.005-27.715 27.713-16.005zM415.85 313.953l-16 27.712-27.71-16 15.998-27.71z m-351.18-202.9l-15.998 27.712-27.712-16.001 15.999-27.712z" fill="#193651" p-id="2547"></path><path d="M969.598 65.6c-8 0-16.001 1.6-24 6.4-8-16.001-25.6-27.2-43.199-27.2-9.6-25.6-35.2-43.2-63.999-43.2-36.799 0-67.2 28.801-68.8 65.6h-3.202c-30.399 0-54.4 24-54.4 54.4s24 54.401 54.4 54.401h203.2c30.399 0 54.4-24 54.4-54.4 0-32.002-24-56.001-54.4-56.001zM324.8 511.998c-6.4 0-12.8 1.6-19.2 4.8-6.4-12.8-19.2-20.8-35.2-22.401-8.001-20.8-27.2-35.201-51.2-35.201-28.8 0-52.8 22.4-54.4 52.8h-1.6a43.02 43.02 0 0 0-43.2 43.199 43.02 43.02 0 0 0 43.2 43.199h160a43.02 43.02 0 0 0 43.198-43.2c1.6-23.994-17.6-43.196-41.598-43.196z m654.398-24c-6.4 0-12.8 1.601-19.2 4.8-6.4-12.8-19.2-20.8-35.2-22.4-8-20.8-27.2-35.201-51.2-35.201-28.8 0-52.8 22.4-54.4 52.8h-1.6a43.02 43.02 0 0 0-43.2 43.199 43.02 43.02 0 0 0 43.2 43.199h160a43.02 43.02 0 0 0 43.199-43.2c1.6-22.396-17.6-43.196-41.599-43.196z" fill="#2EA2DB" p-id="2548"></path></svg>